<svg width="68" height="62" viewBox="0 0 68 62" fill="none" xmlns="http://www.w3.org/2000/svg">
<path d="M16.4244 51.1319C14.6326 51.1319 13.4875 49.8117 13.4875 47.7416V47.7326C13.4875 45.6894 14.6506 44.3467 16.4244 44.3467C17.8613 44.3467 18.8717 45.155 19.1277 46.3854L19.1367 46.4303H18.3194L18.3059 46.3854C18.041 45.5502 17.3898 45.0921 16.4244 45.0921C15.14 45.0921 14.3138 46.1249 14.3138 47.7326V47.7416C14.3138 49.3716 15.1266 50.3865 16.4288 50.3865C17.5874 50.3865 18.3688 49.6456 18.3688 48.5499V48.3927H16.5501V47.6832H19.1771V48.4735C19.1771 50.0722 18.0814 51.1319 16.4244 51.1319Z" fill="white"/>
<path d="M21.7132 50.9793V44.4994H22.5215V50.2518H25.6469V50.9793H21.7132Z" fill="white"/>
<path d="M30.4956 51.1319C28.6365 51.1319 27.5229 49.8117 27.5229 47.7416V47.7326C27.5229 45.6534 28.6635 44.3467 30.4956 44.3467C32.3368 44.3467 33.4684 45.6579 33.4684 47.7326V47.7416C33.4684 49.8072 32.3458 51.1319 30.4956 51.1319ZM30.4956 50.3865C31.8249 50.3865 32.6421 49.3447 32.6421 47.7416V47.7326C32.6421 46.116 31.8204 45.0921 30.4956 45.0921C29.1754 45.0921 28.3492 46.116 28.3492 47.7326V47.7416C28.3492 49.3447 29.1485 50.3865 30.4956 50.3865Z" fill="white"/>
<path d="M35.9731 50.9793V44.4994H38.4519C39.6419 44.4994 40.3693 45.1235 40.3693 46.1115V46.1205C40.3693 46.7896 39.8754 47.4003 39.2512 47.5125V47.5844C40.1358 47.6966 40.6971 48.3029 40.6971 49.1561V49.1651C40.6971 50.3012 39.8799 50.9793 38.5013 50.9793H35.9731ZM38.2812 45.2134H36.7814V47.2925H38.0747C39.0536 47.2925 39.5521 46.9422 39.5521 46.2597V46.2507C39.5521 45.5951 39.085 45.2134 38.2812 45.2134ZM38.3037 47.9885H36.7814V50.2653H38.38C39.3545 50.2653 39.8664 49.8701 39.8664 49.1246V49.1157C39.8664 48.3702 39.3365 47.9885 38.3037 47.9885Z" fill="white"/>
<path d="M42.6046 50.9793L44.9935 44.4994H45.7929L48.1818 50.9793H47.3331L46.682 49.1246H44.1044L43.4533 50.9793H42.6046ZM45.3573 45.5457L44.3424 48.4376H46.444L45.4291 45.5457H45.3573Z" fill="white"/>
<path d="M50.4216 50.9793V44.4994H51.2299V50.2518H54.3553V50.9793H50.4216Z" fill="white"/>
<path d="M2.86049 62.0007C1.10019 62.0007 0 60.6985 0 58.6149V58.6059C0 56.5178 1.0957 55.2155 2.856 55.2155C4.22114 55.2155 5.2854 56.0732 5.4785 57.3171L5.47401 57.3261H4.66121L4.65672 57.3171C4.44117 56.4863 3.74963 55.9609 2.856 55.9609C1.61212 55.9609 0.830756 56.9848 0.830756 58.6059V58.6149C0.830756 60.236 1.61212 61.2553 2.86049 61.2553C3.7631 61.2553 4.45016 60.7928 4.65223 60.0473L4.66121 60.0384H5.4785V60.0473C5.26295 61.2329 4.2391 62.0007 2.86049 62.0007Z" fill="white"/>
<path d="M10.6595 62.0007C8.80044 62.0007 7.68678 60.6805 7.68678 58.6104V58.6014C7.68678 56.5222 8.82738 55.2155 10.6595 55.2155C12.5007 55.2155 13.6323 56.5267 13.6323 58.6014V58.6104C13.6323 60.676 12.5097 62.0007 10.6595 62.0007ZM10.6595 61.2553C11.9887 61.2553 12.806 60.2135 12.806 58.6104V58.6014C12.806 56.9848 11.9843 55.9609 10.6595 55.9609C9.33931 55.9609 8.51304 56.9848 8.51304 58.6014V58.6104C8.51304 60.2135 9.31237 61.2553 10.6595 61.2553Z" fill="white"/>
<path d="M16.137 61.8481V55.3682H18.6113C19.8596 55.3682 20.6769 56.1316 20.6769 57.2946V57.3036C20.6769 58.2017 20.1875 58.9023 19.3747 59.1582L20.8745 61.8481H19.927L18.5394 59.284H16.9453V61.8481H16.137ZM16.9453 58.5655H18.5394C19.3702 58.5655 19.8417 58.1209 19.8417 57.3306V57.3216C19.8417 56.5492 19.3387 56.0867 18.5035 56.0867H16.9453V58.5655Z" fill="white"/>
<path d="M23.2489 61.8481V55.3682H27.2635V56.0956H24.0572V58.1748H27.0974V58.8933H24.0572V61.1206H27.2635V61.8481H23.2489Z" fill="white"/>
<path d="M29.831 61.8481V55.3682H32.3098C33.4998 55.3682 34.2273 55.9924 34.2273 56.9803V56.9893C34.2273 57.6584 33.7333 58.2691 33.1092 58.3813V58.4532C33.9938 58.5655 34.5551 59.1717 34.5551 60.0249V60.0339C34.5551 61.17 33.7378 61.8481 32.3592 61.8481H29.831ZM32.1392 56.0822H30.6393V58.1613H31.9326C32.9116 58.1613 33.41 57.811 33.41 57.1285V57.1195C33.41 56.4639 32.943 56.0822 32.1392 56.0822ZM32.1616 58.8573H30.6393V61.1341H32.238C33.2124 61.1341 33.7244 60.7389 33.7244 59.9935V59.9845C33.7244 59.239 33.1945 58.8573 32.1616 58.8573Z" fill="white"/>
<path d="M36.4625 61.8481L38.8515 55.3682H39.6508L42.0398 61.8481H41.1911L40.54 59.9935H37.9624L37.3113 61.8481H36.4625ZM39.2153 56.4145L38.2004 59.3064H40.302L39.2871 56.4145H39.2153Z" fill="white"/>
<path d="M44.2795 61.8481V55.3682H45.0654L48.5815 60.4111H48.6534V55.3682H49.4527V61.8481H48.6668L45.1507 56.8231H45.0789V61.8481H44.2795Z" fill="white"/>
<path d="M52.2088 61.8481V55.3682H53.0171V58.5161H53.089L55.927 55.3682H56.9419L54.3508 58.1658L57.1799 61.8481H56.1336L53.794 58.7271L53.0171 59.5848V61.8481H52.2088Z" fill="white"/>
<path d="M59.3747 61.8481V55.3682H60.183V61.8481H59.3747Z" fill="white"/>
<path d="M62.4227 61.8481L64.8117 55.3682H65.611L68 61.8481H67.1513L66.5002 59.9935H63.9226L63.2714 61.8481H62.4227ZM65.1754 56.4145L64.1606 59.3064H66.2622L65.2473 56.4145H65.1754Z" fill="white"/>
<path d="M16.421 5.08342C15.4607 4.15919 15.601 2.84146 16.7344 2.1402C17.8679 1.43894 19.5652 1.61969 20.5256 2.54393L28.6892 10.4006C29.6496 11.3249 29.5092 12.6426 28.3758 13.3438C27.2423 14.0451 25.545 13.8643 24.5846 12.9401L16.421 5.08342Z" fill="white"/>
<path d="M15.6593 4.20375C15.6593 2.76721 16.8238 1.60267 18.2603 1.60267C19.6969 1.60267 20.8614 2.76721 20.8614 4.20375V34.9067C20.8614 36.3433 19.6969 37.5078 18.2603 37.5078C16.8238 37.5078 15.6593 36.3433 15.6593 34.9067V4.20375Z" fill="white"/>
<path d="M20.836 37.0863C19.6438 38.0063 17.7107 38.0063 16.5185 37.0863C15.3262 36.1663 15.3262 34.6746 16.5185 33.7546L33.6586 20.5285C34.8509 19.6085 36.7839 19.6086 37.9762 20.5286C39.1684 21.4486 39.1684 22.9402 37.9762 23.8602L20.836 37.0863Z" fill="white"/>
<path d="M52.5962 32.6068C53.6941 33.6944 53.5275 35.249 52.2239 36.0792C50.9204 36.9093 48.9737 36.7006 47.8758 35.6129L41.3571 29.1554C40.2592 28.0678 40.4259 26.5132 41.7294 25.6831C43.0329 24.8529 44.9797 25.0617 46.0776 26.1493L52.5962 32.6068Z" fill="white"/>
<path d="M53.3757 34.9065C53.3757 36.343 52.2112 37.5075 50.7746 37.5075C49.3381 37.5075 48.1735 36.343 48.1735 34.9065V3.08145C48.1735 1.64491 49.3381 0.480366 50.7746 0.480366C52.2112 0.480366 53.3757 1.64491 53.3757 3.08145V34.9065Z" fill="white"/>
<path d="M48.199 1.07351C49.3912 0.126536 51.3242 0.126538 52.5165 1.07352C53.7088 2.02049 53.7088 3.55585 52.5165 4.50283L35.3764 18.1167C34.1841 19.0637 32.2511 19.0637 31.0588 18.1167C29.8665 17.1698 29.8665 15.6344 31.0588 14.6874L48.199 1.07351Z" fill="white"/>
</svg>
