<svg width="218" height="47" viewBox="0 0 218 47" fill="none" xmlns="http://www.w3.org/2000/svg">
<path d="M71.674 11.48C71.37 10.92 70.93 10.496 70.354 10.208C69.794 9.904 69.13 9.752 68.362 9.752C67.034 9.752 65.97 10.192 65.17 11.072C64.37 11.936 63.97 13.096 63.97 14.552C63.97 16.104 64.386 17.32 65.218 18.2C66.066 19.064 67.226 19.496 68.698 19.496C69.706 19.496 70.554 19.24 71.242 18.728C71.946 18.216 72.458 17.48 72.778 16.52H67.57V13.496H76.498V17.312C76.194 18.336 75.674 19.288 74.938 20.168C74.218 21.048 73.298 21.76 72.178 22.304C71.058 22.848 69.794 23.12 68.386 23.12C66.722 23.12 65.234 22.76 63.922 22.04C62.626 21.304 61.61 20.288 60.874 18.992C60.154 17.696 59.794 16.216 59.794 14.552C59.794 12.888 60.154 11.408 60.874 10.112C61.61 8.8 62.626 7.784 63.922 7.064C65.218 6.328 66.698 5.96 68.362 5.96C70.378 5.96 72.074 6.448 73.45 7.424C74.842 8.4 75.762 9.752 76.21 11.48H71.674ZM82.8752 19.832H88.2512V23H78.7712V6.152H82.8752V19.832ZM98.1767 23.168C96.5927 23.168 95.1367 22.8 93.8087 22.064C92.4967 21.328 91.4487 20.304 90.6647 18.992C89.8967 17.664 89.5127 16.176 89.5127 14.528C89.5127 12.88 89.8967 11.4 90.6647 10.088C91.4487 8.776 92.4967 7.752 93.8087 7.016C95.1367 6.28 96.5927 5.912 98.1767 5.912C99.7607 5.912 101.209 6.28 102.521 7.016C103.849 7.752 104.889 8.776 105.641 10.088C106.409 11.4 106.793 12.88 106.793 14.528C106.793 16.176 106.409 17.664 105.641 18.992C104.873 20.304 103.833 21.328 102.521 22.064C101.209 22.8 99.7607 23.168 98.1767 23.168ZM98.1767 19.424C99.5207 19.424 100.593 18.976 101.393 18.08C102.209 17.184 102.617 16 102.617 14.528C102.617 13.04 102.209 11.856 101.393 10.976C100.593 10.08 99.5207 9.632 98.1767 9.632C96.8167 9.632 95.7287 10.072 94.9127 10.952C94.1127 11.832 93.7127 13.024 93.7127 14.528C93.7127 16.016 94.1127 17.208 94.9127 18.104C95.7287 18.984 96.8167 19.424 98.1767 19.424ZM119.276 14.36C120.252 14.568 121.036 15.056 121.628 15.824C122.22 16.576 122.516 17.44 122.516 18.416C122.516 19.824 122.02 20.944 121.028 21.776C120.052 22.592 118.684 23 116.924 23H109.076V6.152H116.66C118.372 6.152 119.708 6.544 120.668 7.328C121.644 8.112 122.132 9.176 122.132 10.52C122.132 11.512 121.868 12.336 121.34 12.992C120.828 13.648 120.14 14.104 119.276 14.36ZM113.18 12.968H115.868C116.54 12.968 117.052 12.824 117.404 12.536C117.772 12.232 117.956 11.792 117.956 11.216C117.956 10.64 117.772 10.2 117.404 9.896C117.052 9.592 116.54 9.44 115.868 9.44H113.18V12.968ZM116.204 19.688C116.892 19.688 117.42 19.536 117.788 19.232C118.172 18.912 118.364 18.456 118.364 17.864C118.364 17.272 118.164 16.808 117.764 16.472C117.38 16.136 116.844 15.968 116.156 15.968H113.18V19.688H116.204ZM135.384 20.024H129.096L128.088 23H123.792L129.888 6.152H134.64L140.736 23H136.392L135.384 20.024ZM134.328 16.856L132.24 10.688L130.176 16.856H134.328ZM146.696 19.832H152.072V23H142.592V6.152H146.696V19.832ZM59.794 37.552C59.794 35.888 60.154 34.408 60.874 33.112C61.594 31.8 62.594 30.784 63.874 30.064C65.17 29.328 66.634 28.96 68.266 28.96C70.266 28.96 71.978 29.488 73.402 30.544C74.826 31.6 75.778 33.04 76.258 34.864H71.746C71.41 34.16 70.93 33.624 70.306 33.256C69.698 32.888 69.002 32.704 68.218 32.704C66.954 32.704 65.93 33.144 65.146 34.024C64.362 34.904 63.97 36.08 63.97 37.552C63.97 39.024 64.362 40.2 65.146 41.08C65.93 41.96 66.954 42.4 68.218 42.4C69.002 42.4 69.698 42.216 70.306 41.848C70.93 41.48 71.41 40.944 71.746 40.24H76.258C75.778 42.064 74.826 43.504 73.402 44.56C71.978 45.6 70.266 46.12 68.266 46.12C66.634 46.12 65.17 45.76 63.874 45.04C62.594 44.304 61.594 43.288 60.874 41.992C60.154 40.696 59.794 39.216 59.794 37.552ZM86.7392 46.168C85.1552 46.168 83.6992 45.8 82.3712 45.064C81.0592 44.328 80.0112 43.304 79.2272 41.992C78.4592 40.664 78.0752 39.176 78.0752 37.528C78.0752 35.88 78.4592 34.4 79.2272 33.088C80.0112 31.776 81.0592 30.752 82.3712 30.016C83.6992 29.28 85.1552 28.912 86.7392 28.912C88.3232 28.912 89.7712 29.28 91.0832 30.016C92.4112 30.752 93.4512 31.776 94.2032 33.088C94.9712 34.4 95.3552 35.88 95.3552 37.528C95.3552 39.176 94.9712 40.664 94.2032 41.992C93.4352 43.304 92.3952 44.328 91.0832 45.064C89.7712 45.8 88.3232 46.168 86.7392 46.168ZM86.7392 42.424C88.0832 42.424 89.1552 41.976 89.9552 41.08C90.7712 40.184 91.1792 39 91.1792 37.528C91.1792 36.04 90.7712 34.856 89.9552 33.976C89.1552 33.08 88.0832 32.632 86.7392 32.632C85.3792 32.632 84.2912 33.072 83.4752 33.952C82.6752 34.832 82.2752 36.024 82.2752 37.528C82.2752 39.016 82.6752 40.208 83.4752 41.104C84.2912 41.984 85.3792 42.424 86.7392 42.424ZM106.23 46L102.726 39.64H101.742V46H97.6384V29.152H104.526C105.854 29.152 106.982 29.384 107.91 29.848C108.854 30.312 109.558 30.952 110.022 31.768C110.486 32.568 110.718 33.464 110.718 34.456C110.718 35.576 110.398 36.576 109.758 37.456C109.134 38.336 108.206 38.96 106.974 39.328L110.862 46H106.23ZM101.742 36.736H104.286C105.038 36.736 105.598 36.552 105.966 36.184C106.35 35.816 106.542 35.296 106.542 34.624C106.542 33.984 106.35 33.48 105.966 33.112C105.598 32.744 105.038 32.56 104.286 32.56H101.742V36.736ZM117.399 32.44V35.848H122.895V39.016H117.399V42.712H123.615V46H113.295V29.152H123.615V32.44H117.399ZM136.479 37.36C137.455 37.568 138.239 38.056 138.831 38.824C139.423 39.576 139.719 40.44 139.719 41.416C139.719 42.824 139.223 43.944 138.231 44.776C137.255 45.592 135.887 46 134.127 46H126.279V29.152H133.863C135.575 29.152 136.911 29.544 137.871 30.328C138.847 31.112 139.335 32.176 139.335 33.52C139.335 34.512 139.071 35.336 138.543 35.992C138.031 36.648 137.343 37.104 136.479 37.36ZM130.383 35.968H133.071C133.743 35.968 134.255 35.824 134.607 35.536C134.975 35.232 135.159 34.792 135.159 34.216C135.159 33.64 134.975 33.2 134.607 32.896C134.255 32.592 133.743 32.44 133.071 32.44H130.383V35.968ZM133.407 42.688C134.095 42.688 134.623 42.536 134.991 42.232C135.375 41.912 135.567 41.456 135.567 40.864C135.567 40.272 135.367 39.808 134.967 39.472C134.583 39.136 134.047 38.968 133.359 38.968H130.383V42.688H133.407ZM152.587 43.024H146.299L145.291 46H140.995L147.091 29.152H151.843L157.939 46H153.595L152.587 43.024ZM151.531 39.856L149.443 33.688L147.379 39.856H151.531ZM174.867 46H170.763L163.899 35.608V46H159.795V29.152H163.899L170.763 39.592V29.152H174.867V46ZM187.61 46L181.946 38.56V46H177.842V29.152H181.946V36.544L187.562 29.152H192.386L185.858 37.408L192.626 46H187.61ZM198.68 29.152V46H194.576V29.152H198.68ZM212.142 43.024H205.854L204.846 46H200.55L206.646 29.152H211.398L217.494 46H213.15L212.142 43.024ZM211.086 39.856L208.998 33.688L206.934 39.856H211.086Z" fill="white"/>
<path d="M2.00684 6.38886C0.713211 5.25338 0.902239 3.63446 2.42905 2.77291C3.95586 1.91136 6.24227 2.13343 7.5359 3.26892L18.5327 12.9214C19.8263 14.0569 19.6373 15.6758 18.1105 16.5374C16.5837 17.3989 14.2973 17.1768 13.0036 16.0414L2.00684 6.38886Z" fill="white"/>
<path d="M0.980724 5.30813C0.980724 3.54324 2.54942 2.11252 4.4845 2.11252C6.41959 2.11252 7.98828 3.54324 7.98828 5.30813V43.0289C7.98828 44.7938 6.41959 46.2245 4.4845 46.2245C2.54942 46.2245 0.980724 44.7938 0.980724 43.0289V5.30813Z" fill="white"/>
<path d="M7.95407 45.7066C6.34804 46.8368 3.74415 46.8368 2.13812 45.7066C0.532087 44.5763 0.532086 42.7437 2.13812 41.6134L25.2267 25.3643C26.8327 24.234 29.4366 24.234 31.0426 25.3643C32.6487 26.4946 32.6487 28.3271 31.0426 29.4574L7.95407 45.7066Z" fill="white"/>
<path d="M50.7365 40.2032C52.2155 41.5394 51.9909 43.4494 50.235 44.4693C48.4791 45.4891 45.8568 45.2327 44.3779 43.8965L35.5969 35.963C34.118 34.6268 34.3425 32.7168 36.0984 31.697C37.8543 30.6771 40.4767 30.9335 41.9556 32.2697L50.7365 40.2032Z" fill="white"/>
<path d="M51.7865 43.0285C51.7865 44.7934 50.2178 46.2242 48.2828 46.2242C46.3477 46.2242 44.779 44.7934 44.779 43.0285V3.92931C44.779 2.16442 46.3477 0.733691 48.2828 0.733691C50.2178 0.733691 51.7865 2.16442 51.7865 3.9293V43.0285Z" fill="white"/>
<path d="M44.8132 1.46241C46.4192 0.298985 49.0231 0.298988 50.6291 1.46242C52.2352 2.62584 52.2352 4.51214 50.6291 5.67556L27.5406 22.4012C25.9345 23.5646 23.3307 23.5646 21.7246 22.4012C20.1186 21.2378 20.1186 19.3515 21.7246 18.1881L44.8132 1.46241Z" fill="white"/>
</svg>
