<?xml version="1.0" encoding="UTF-8" standalone="no"?>
<!-- Created with Inkscape (http://www.inkscape.org/) -->

<svg
   width="59.210155"
   height="58.053658"
   viewBox="0 0 15.66602 15.36003"
   version="1.1"
   id="svg1"
   xmlns="http://www.w3.org/2000/svg"
   xmlns:svg="http://www.w3.org/2000/svg">
  <defs
     id="defs1" />
  <g
     id="layer1"
     transform="translate(-139.43542,-159.54375)">
    <path
       style="fill:#ffffff;stroke-width:0.401204"
       d="m 146.08683,173.7945 v -1.10636 h -1.1265 -1.12652 v -1.09911 -1.09911 c -0.77906,0 -1.50391,-0.008 -2.2564,-0.008 0,-0.68313 0.016,-1.41598 -0.004,-2.09892 l -0.18388,-0.006 c -0.10102,-0.003 -0.58217,-0.006 -1.06899,-0.004 l -0.88512,0.002 v -1.15051 -1.15052 h 1.06913 1.06913 c 0,-0.73765 7.8e-4,-1.47101 7.8e-4,-2.21214 0.84843,0 1.4676,-7.8e-4 2.2523,-7.8e-4 0,-0.75006 -0.008,-1.35639 -0.008,-2.21143 1.01603,0 1.27438,-0.0111 2.3093,-0.0111 0,-0.68949 -0.008,-1.38198 -0.008,-2.09477 0,0 1.98111,0.007 2.29677,0.007 0,0.29944 0.024,0.7398 0.0254,1.81807 l 0.007,0.28503 c 0.73003,0 1.40406,-0.006 2.15966,-0.006 0,0.64333 -0.006,1.47964 -0.006,2.22037 h 1.12275 1.12278 v 1.10278 1.10279 h 1.12651 1.12651 v 1.15929 1.15927 l -0.24138,-0.0204 c -0.13278,-0.0112 -0.63971,-0.013 -1.12652,-0.003 l -0.88512,0.0163 v 1.0466 1.0466 l -1.09636,0.003 -1.12988,0.0136 -0.0136,1.1192 0.006,1.07325 -1.09218,0.003 -1.14583,0.006 c -0.006,0.74324 0.002,1.52382 0.002,2.20228 l -1.13657,0.005 -1.15334,-0.001 z m 2.25304,-2.20914 0.008,-1.11209 -1.08236,0.008 h -1.07286 v 1.10278 1.1028 h 1.07286 1.07289 z m -2.25325,-2.17933 -2.3e-4,-1.07653 h -1.07273 -1.07276 l 1e-4,1.07653 9e-5,1.07655 h 1.07288 1.07286 z m 4.50629,0.0263 v -1.05028 h -1.06526 -1.16007 l 0.003,0.94765 c 0.002,0.61873 -4e-4,1.03778 -4e-4,1.15228 0.0553,-0.003 0.52147,7.9e-4 1.15845,7.9e-4 h 1.06394 z m -2.25304,-2.20558 v -1.05028 h -1.07287 -1.07286 v 1.05028 1.05029 h 1.07286 1.07287 z m 4.50609,0 v -1.05028 h -1.12653 -1.12652 v 1.05028 1.05029 h 1.12652 1.12653 z m -6.75913,-2.20557 v -1.05028 h -1.07286 -1.07288 v 1.05028 1.05028 h 1.07288 1.07286 z m 4.50608,0 v -1.05028 h -1.07287 -1.07287 v 1.05028 1.05028 h 1.07287 1.07287 z m -2.25304,-2.20557 v -1.05033 h -1.07287 -1.07286 v 1.05029 1.05026 h 1.07286 1.07287 z"
       id="path19-9" />
  </g>
</svg>
