<svg width="68" height="62" viewBox="0 0 68 62" fill="none" xmlns="http://www.w3.org/2000/svg">
<path d="M16.4244 51.1318C14.6326 51.1318 13.4875 49.8116 13.4875 47.7414V47.7324C13.4875 45.6892 14.6506 44.3466 16.4244 44.3466C17.8613 44.3466 18.8717 45.1549 19.1277 46.3853L19.1367 46.4302H18.3194L18.3059 46.3853C18.041 45.55 17.3898 45.092 16.4244 45.092C15.14 45.092 14.3138 46.1248 14.3138 47.7324V47.7414C14.3138 49.3715 15.1266 50.3864 16.4288 50.3864C17.5874 50.3864 18.3688 49.6454 18.3688 48.5497V48.3926H16.5501V47.6831H19.1771V48.4734C19.1771 50.072 18.0814 51.1318 16.4244 51.1318Z" fill="black"/>
<path d="M21.7132 50.9791V44.4992H22.5215V50.2517H25.6469V50.9791H21.7132Z" fill="black"/>
<path d="M30.4956 51.1318C28.6365 51.1318 27.5229 49.8116 27.5229 47.7414V47.7324C27.5229 45.6533 28.6635 44.3466 30.4956 44.3466C32.3368 44.3466 33.4684 45.6578 33.4684 47.7324V47.7414C33.4684 49.8071 32.3458 51.1318 30.4956 51.1318ZM30.4956 50.3864C31.8249 50.3864 32.6421 49.3446 32.6421 47.7414V47.7324C32.6421 46.1158 31.8204 45.092 30.4956 45.092C29.1754 45.092 28.3492 46.1158 28.3492 47.7324V47.7414C28.3492 49.3446 29.1485 50.3864 30.4956 50.3864Z" fill="black"/>
<path d="M35.9731 50.9791V44.4992H38.4519C39.6419 44.4992 40.3693 45.1234 40.3693 46.1114V46.1203C40.3693 46.7894 39.8754 47.4001 39.2512 47.5124V47.5843C40.1358 47.6965 40.6971 48.3028 40.6971 49.156V49.1649C40.6971 50.3011 39.8799 50.9791 38.5013 50.9791H35.9731ZM38.2812 45.2132H36.7814V47.2924H38.0747C39.0536 47.2924 39.5521 46.9421 39.5521 46.2595V46.2506C39.5521 45.5949 39.085 45.2132 38.2812 45.2132ZM38.3037 47.9884H36.7814V50.2651H38.38C39.3545 50.2651 39.8664 49.87 39.8664 49.1245V49.1155C39.8664 48.3701 39.3365 47.9884 38.3037 47.9884Z" fill="black"/>
<path d="M42.6046 50.9791L44.9935 44.4992H45.7929L48.1818 50.9791H47.3331L46.682 49.1245H44.1044L43.4533 50.9791H42.6046ZM45.3573 45.5455L44.3424 48.4375H46.444L45.4291 45.5455H45.3573Z" fill="black"/>
<path d="M50.4216 50.9791V44.4992H51.2299V50.2517H54.3553V50.9791H50.4216Z" fill="black"/>
<path d="M2.86049 62.0006C1.10019 62.0006 0 60.6984 0 58.6147V58.6058C0 56.5176 1.0957 55.2154 2.856 55.2154C4.22114 55.2154 5.2854 56.0731 5.4785 57.317L5.47401 57.3259H4.66121L4.65672 57.317C4.44117 56.4862 3.74963 55.9608 2.856 55.9608C1.61212 55.9608 0.830756 56.9847 0.830756 58.6058V58.6147C0.830756 60.2358 1.61212 61.2552 2.86049 61.2552C3.7631 61.2552 4.45016 60.7927 4.65223 60.0472L4.66121 60.0382H5.4785V60.0472C5.26295 61.2327 4.2391 62.0006 2.86049 62.0006Z" fill="black"/>
<path d="M10.6595 62.0006C8.80044 62.0006 7.68678 60.6804 7.68678 58.6102V58.6013C7.68678 56.5221 8.82738 55.2154 10.6595 55.2154C12.5007 55.2154 13.6323 56.5266 13.6323 58.6013V58.6102C13.6323 60.6759 12.5097 62.0006 10.6595 62.0006ZM10.6595 61.2552C11.9887 61.2552 12.806 60.2134 12.806 58.6102V58.6013C12.806 56.9847 11.9843 55.9608 10.6595 55.9608C9.33931 55.9608 8.51304 56.9847 8.51304 58.6013V58.6102C8.51304 60.2134 9.31237 61.2552 10.6595 61.2552Z" fill="black"/>
<path d="M16.137 61.8479V55.3681H18.6113C19.8596 55.3681 20.6769 56.1314 20.6769 57.2945V57.3035C20.6769 58.2016 20.1875 58.9021 19.3747 59.1581L20.8745 61.8479H19.927L18.5394 59.2838H16.9453V61.8479H16.137ZM16.9453 58.5653H18.5394C19.3702 58.5653 19.8417 58.1208 19.8417 57.3304V57.3214C19.8417 56.5491 19.3387 56.0865 18.5035 56.0865H16.9453V58.5653Z" fill="black"/>
<path d="M23.2489 61.8479V55.3681H27.2635V56.0955H24.0572V58.1747H27.0974V58.8931H24.0572V61.1205H27.2635V61.8479H23.2489Z" fill="black"/>
<path d="M29.831 61.8479V55.3681H32.3098C33.4998 55.3681 34.2273 55.9922 34.2273 56.9802V56.9891C34.2273 57.6582 33.7333 58.269 33.1092 58.3812V58.4531C33.9938 58.5653 34.5551 59.1716 34.5551 60.0248V60.0338C34.5551 61.1699 33.7378 61.8479 32.3592 61.8479H29.831ZM32.1392 56.0821H30.6393V58.1612H31.9326C32.9116 58.1612 33.41 57.8109 33.41 57.1284V57.1194C33.41 56.4637 32.943 56.0821 32.1392 56.0821ZM32.1616 58.8572H30.6393V61.1339H32.238C33.2124 61.1339 33.7244 60.7388 33.7244 59.9933V59.9844C33.7244 59.2389 33.1945 58.8572 32.1616 58.8572Z" fill="black"/>
<path d="M36.4625 61.8479L38.8515 55.3681H39.6508L42.0398 61.8479H41.1911L40.54 59.9933H37.9624L37.3113 61.8479H36.4625ZM39.2153 56.4144L38.2004 59.3063H40.302L39.2871 56.4144H39.2153Z" fill="black"/>
<path d="M44.2795 61.8479V55.3681H45.0654L48.5815 60.411H48.6534V55.3681H49.4527V61.8479H48.6668L45.1507 56.823H45.0789V61.8479H44.2795Z" fill="black"/>
<path d="M52.2088 61.8479V55.3681H53.0171V58.5159H53.089L55.927 55.3681H56.9419L54.3508 58.1657L57.1799 61.8479H56.1336L53.794 58.727L53.0171 59.5847V61.8479H52.2088Z" fill="black"/>
<path d="M59.3747 61.8479V55.3681H60.183V61.8479H59.3747Z" fill="black"/>
<path d="M62.4227 61.8479L64.8117 55.3681H65.611L68 61.8479H67.1513L66.5002 59.9933H63.9226L63.2714 61.8479H62.4227ZM65.1754 56.4144L64.1606 59.3063H66.2622L65.2473 56.4144H65.1754Z" fill="black"/>
<path d="M16.4208 5.08342C15.4604 4.15919 15.6007 2.84146 16.7342 2.1402C17.8676 1.43894 19.565 1.61969 20.5253 2.54393L28.689 10.4006C29.6493 11.3249 29.509 12.6426 28.3756 13.3438C27.2421 14.0451 25.5447 13.8643 24.5844 12.9401L16.4208 5.08342Z" fill="#E89451"/>
<path d="M15.659 4.20375C15.659 2.76721 16.8236 1.60267 18.2601 1.60267C19.6966 1.60267 20.8612 2.76721 20.8612 4.20375V34.9067C20.8612 36.3433 19.6966 37.5078 18.2601 37.5078C16.8236 37.5078 15.659 36.3433 15.659 34.9067V4.20375Z" fill="#E2A156"/>
<path d="M20.8358 37.0863C19.6435 38.0063 17.7105 38.0063 16.5182 37.0863C15.326 36.1663 15.326 34.6746 16.5182 33.7546L33.6584 20.5285C34.8506 19.6085 36.7837 19.6086 37.9759 20.5286C39.1682 21.4486 39.1682 22.9402 37.9759 23.8602L20.8358 37.0863Z" fill="#CB4644"/>
<path d="M52.596 32.6068C53.6939 33.6944 53.5272 35.249 52.2237 36.0792C50.9202 36.9093 48.9734 36.7006 47.8755 35.6129L41.3569 29.1554C40.259 28.0678 40.4257 26.5132 41.7292 25.6831C43.0327 24.8529 44.9794 25.0617 46.0773 26.1493L52.596 32.6068Z" fill="#5A955A"/>
<path d="M53.3755 34.9065C53.3755 36.343 52.2109 37.5075 50.7744 37.5075C49.3378 37.5075 48.1733 36.343 48.1733 34.9065V3.08145C48.1733 1.64491 49.3378 0.480366 50.7744 0.480366C52.2109 0.480366 53.3755 1.64491 53.3755 3.08145V34.9065Z" fill="#71B568"/>
<path d="M48.1987 1.07351C49.391 0.126536 51.324 0.126538 52.5163 1.07352C53.7085 2.02049 53.7085 3.55585 52.5163 4.50283L35.3761 18.1167C34.1839 19.0637 32.2508 19.0637 31.0586 18.1167C29.8663 17.1698 29.8663 15.6344 31.0586 14.6874L48.1987 1.07351Z" fill="#62A998"/>
</svg>
