<?xml version="1.0" standalone="yes"?>
<svg xmlns="http://www.w3.org/2000/svg" width="420" height="114">
<path style="fill:#3b3939; stroke:none;" d="M51 0L51 14L34 14L34 31L17 31L17 48L0 48L0 66L17 66L17 83L34 83L34 100L51 100L51 114L68 114L68 100L85 100L85 83L102 83L102 66L119 66L119 48L102 48L102 31L85 31L85 14L68 14L68 0L51 0M168 32L160 32L159.639 33.5L159.278 34.0556L158.667 35.0556L157.889 35.9722L156.972 36.8889L155 38.2778L153 38.8889L152 38.9722L150 38.8889L149 38.6667L148 38.2778L147 37.6667L145.083 35.9722L143.5 34L142.5 32L142.25 31L142.028 29L142 27L142 25L142.028 24L142.083 23L142.472 21L143.278 19L143.861 18.0278L144.472 17.0833L146.083 15.4722L148 14.2778L149 13.8611L150 13.4722L152 13.1667L154 13.5L155 13.9444L156 14.5L157.889 16.0833L158.667 16.9722L159.639 18.5L160 20L168 20L167.75 18.5L167.306 16.9444L166.583 15L165.5 13.0278L163.917 11.25L162 9.86111L160 8.83334L159 8.38889L157 7.69444L156 7.41666L154 7.08334L152 7L150 7.08334L149 7.22222L148 7.41666L146 8L144 8.69444L143 9.11111L141 10.3056L139.083 12.0278L138.25 13L137.5 14L136.417 16L135.694 18L135.417 19L135.083 21L135.028 22L135 24L135 25L135 27L135 29L135 30L135.083 32L135.472 34L136.194 36L136.639 37L137.083 38L138.306 39.9167L139.111 40.7778L140.028 41.5833L142 42.9722L143 43.5833L145 44.5L146 44.75L148 44.9722L149 45L151 45L153 45L154 45L156 44.9167L157 44.75L158 44.5L160 43.5833L162 42.3056L162.972 41.5833L164.75 39.9167L165.5 38.9722L166.583 37L167.306 35.0556L167.75 33.5L168 32M187 7.41666L186 7.69444L184 8.33334L182 9.08334L180.028 10.0833L178.222 11.4167L177.417 12.2222L176.028 14.0278L174.833 16L174.278 17L173.472 19L173.083 21L173 23L173 24L173 26L173 28L173 29L173.028 31L173.306 33L174.083 35L174.639 36L175.194 37L176.472 39L178.083 40.9167L180 42.5278L182 43.7222L184 44.5278L186 44.9167L188 45L189 45L191 45L193 45L195 44.9167L196 44.75L197 44.5278L198 44.1389L199.972 43.2222L200.917 42.75L202.611 41.5278L203.361 40.75L204.139 39.9167L205.556 38L206.139 37L207.139 35L207.528 34L207.75 33L207.917 32L208 30L208 29L208 26L208 24L208 23L207.917 21L207.75 20L207.528 19L206.722 17L206.167 16L205.611 15L204.306 13.0833L202.778 11.4167L200.972 10.0833L199 9.08334L197 8.33334L196 8L194 7.41666L192 7.08334L191 7.02778L189 7.08334L187 7.41666M348 32L341 32L340.167 33.5L339.917 34.0556L339.333 35.0556L338.694 35.9722L336.972 37.6667L336 38.2778L335 38.6667L334 38.8889L332 38.9722L330 38.75L329 38.5L328 38.0556L327.028 37.5L325.306 35.9167L324.639 34.9722L324.111 34L323.333 32L323 31L322.417 29L322.222 28L322.083 27L322.083 25L322.417 23L322.694 22L323.417 20L324.5 18L326.083 16.1111L328 14.6389L329 14.1111L330 13.7222L332 13.3056L334 13.4444L335 13.7222L337 14.6389L337.972 15.3056L338.889 16.1111L340.278 17.9444L340.639 18.5L341 20L348 20L347.917 17.9444L347.528 16L346.722 14L346.139 13.0278L345.528 12.0833L343.917 10.4722L342 9.27778L340 8.38889L339 8.02778L337 7.41666L335 7.08334L334 7.02778L333 7L331 7.08334L330 7.22222L329 7.41666L327 8L325 8.69444L323 9.63889L321 11.1111L320.028 12.0278L319.083 13L317.5 15L316.472 17L316.167 18L315.639 20L315.389 21L315.083 23L315 25L315 26L315 27L315.083 29L315.222 30L315.417 31L316 33L316.333 34L317.028 36L317.389 37L318.278 38.9167L319.472 40.5833L320.25 41.3056L322.028 42.6667L324 43.8889L326 44.6944L327 44.8889L328 44.9722L329 45L330 45L332 45L334 45L335 45L336 44.9722L338 44.6944L340 43.9167L341 43.3611L342 42.8056L343.917 41.5278L345.528 39.9167L346.139 38.9722L346.722 38L347.528 36L347.75 35.0556L347.972 33.5L348 32M398 7.41666L396 8L394 8.69444L393 9.11111L392 9.63889L391 10.3056L389.083 12.0278L387.472 14L386.278 16L385.444 18L385.167 19L384.639 21L384.389 22L384.083 24L384.028 25L384 26L384.083 28L384.222 29L384.611 31L385 33L385.222 34L385.5 35L386.417 37L387.694 38.9722L388.417 39.9167L390.083 41.5833L392 42.9167L394 43.9167L396 44.5833L397 44.7778L398 44.9167L400 45L402 45L404 45L406 44.9167L407 44.75L408 44.5278L409 44.1389L411 43.2222L412 42.75L413.917 41.5278L415.528 39.9167L416.139 38.9722L416.75 38L417.75 36L418.139 35L418.556 34L419.139 32L419.611 30L419.917 28L419.972 27L420 26L419.917 24L419.611 22L419.361 21L419.139 20L418.528 18L417.583 16L416.306 14L415.583 13.0278L413.917 11.25L412.972 10.5L411 9.41667L409 8.61111L407 7.83334L406 7.47222L404 7.08334L402 7L400 7.08334L398 7.41666M216 8L216 45L223 45L223 20L224.167 21.5L224.444 22.0556L225.028 23.0556L226.083 25L227.333 27L228.667 29L229.917 31L230.472 32L231.528 34L232.083 35L233.333 37L234.667 39L235.917 41L236.944 42.9444L237.167 43.5L238 45L246 45L246 8L239 8L239 32L237.778 31.2222L237.417 30.6944L236.778 29.8889L235.611 28L234.389 26L233.194 24L232.611 23L231.389 21L230.194 19L229.611 18L228.389 16L227.806 15L226.611 13L225.417 11.0556L224.889 10.0556L224.528 9.5L224 8L216 8M250 8L250 14L261 14L261 45L268 45L268 14L279 14L279 8L250 8M291 8L290.75 9.5L290.306 11.0556L289.611 13L289.194 14L288.389 16L287.611 18L286.833 20L286.444 21L285.833 23L285.556 24L284.806 26L284.389 27L283.667 29L283.333 30L282.667 32L282.333 33L281.611 35L281.194 36L280.444 38L279.833 40L279.556 41L278.806 42.9444L278.5 43.5L278 45L286 45L286.5 43.5L286.806 42.9444L287.528 41L287.75 40.0556L287.972 38.5L288 37L304 37L304.083 39.0556L304.417 41L305.028 42.9444L305.194 43.5L306 45L313 45L312.917 43.5L312.528 41.9444L311.806 40L311.389 39L310.667 37L310.333 36L309.667 34L309.333 33L308.611 31L308.194 30L307.444 28L306.833 26L306.556 25L306.167 24L305.389 22L304.667 20L304.333 19L303.667 17L303.333 16L302.972 15L302.611 14L301.75 12L301.25 11.0556L300.833 10.0556L300.5 9.5L300 8L291 8M352 8L352 14L363 14L363 45L370 45L370 14L381 14L381 8L352 8M183 38L182.5 36.5L182.194 35.9444L181.389 34L180.694 32L180.417 31L180.083 29L180.028 28L180 26L180 25L180 24L180.083 22L180.25 21L180.5 20L181.417 18.0278L182.028 17.0833L182.694 16.25L183.417 15.5L185.083 14.4167L186.028 14.0278L187 13.6944L188 13.4167L190 13.0833L192 13.0833L194 13.5L195 13.9444L196 14.5L197.917 16.0833L199.5 18L200.056 19L200.5 20L200.917 22L201 24L201 26L201 28L200.917 30L200.583 32L199.889 34L198.694 35.9722L197.889 36.8889L196 38.2778L195 38.6667L194 38.8889L192 39L190 39L188 38.9167L186.056 38.6111L184.5 38.25L183 38M400 13.2222L401 13.0833L403 13.0833L404 13.25L405 13.5L407 14.5L408.917 16.0833L410.528 18L411.139 19L412.139 21L412.528 22L412.75 23L412.972 25L412.972 27L412.917 28L412.583 30L412.306 31L411.583 33L410.5 35L408.917 36.8889L407 38.2778L405 38.8889L404 38.9722L402 39L400 38.9722L399 38.8889L398 38.6944L397.028 38.3611L396.083 37.8889L394.472 36.5833L393.861 35.7778L393.278 34.9167L392.389 33L392.028 32L391.417 30L391.083 28L391.028 27L391 26L391.083 24L391.417 22L392.083 20L392.556 19L393.722 17.0278L394.417 16.1111L396.083 14.6389L397.028 14.1111L399 13.4167L400 13.2222M67 15L67 31L52 31L52 15L67 15M296 16L296.972 17.5L297.139 18.0556L297.583 19.0556L298.139 21L298.361 22L298.639 23L298.861 24L299.444 26L299.833 27L300.167 27.9444L300.722 29.5L301 31L291 31L291.25 29.5L291.389 28.9444L291.806 27L292 26L292.472 24L292.833 23L293.556 21L294.167 19.0278L294.417 18.1111L294.861 17.3056L295.028 16.7778L296 16M50 32L51 33L51 48L35 48L35 32L50 32M84 32L84 48L68 48L68 32L84 32M67 49L67 65L52 65L52 49L67 49M101 49L101 65L85 65L85 49L101 49M51 66L51 81L50 82L35 82L35 66L51 66M84 66L84 82L68 82L68 66L84 66M137 69L137 106L164 106L164 100L144 100L144 90L161 90L161 84L144 84L144 75L163 75L163 69L137 69M171 69L171 106L178 106L178 90L194 90L194 84L178 84L178 75L196 75L196 69L171 69M201 69L201 106L208 106L208 69L201 69M248 93L241 93L240.194 94.5L240 95.0556L239.083 96.9167L238.5 97.75L237.75 98.5L236.917 99.0833L235 99.9722L233 100.556L232 100.694L230 100.472L229 100.056L227.028 98.75L226.083 97.9167L224.5 96L223.917 95L223.417 94L222.694 92L222.417 91L222.083 89L222.083 87L222.222 86L222.639 84L222.861 83L223.472 81L223.944 80L224.5 79.0278L226.083 77.25L227.028 76.5L229 75.5L231 75.0833L232 75.0278L233 75.0278L234 75.1111L236 75.7222L237.917 77.1111L239.528 78.9444L241 81L248 81L247.75 79.5L247.583 78.9444L247.306 77.9444L246.583 76L246.083 75.0278L245.5 74.0833L244.75 73.2222L242.972 71.6944L241 70.4167L239 69.5L238 69.25L237 69.0833L235 69L234 69L232 69L230 69L229 69.0278L228 69.0833L226 69.4722L224 70.2778L223 70.8611L222 71.4722L220.083 73.0833L219.222 74.0278L217.722 76L217.111 77L216.278 79L215.806 81L215.611 82L215.222 84L215.083 85L215 87L215 88L215.028 90L215.083 91L215.389 93L215.639 94L216.167 96L216.472 97L217.417 99L218.694 100.917L219.417 101.778L221.083 103.306L222.028 103.972L224 105.111L225 105.583L227 106.306L228 106.583L230 106.917L232 107L234 106.917L235 106.778L236 106.583L238 105.972L240 105.167L241 104.722L242.972 103.528L244.75 101.917L245.5 100.972L246.583 99L247.306 97L247.583 96.0556L247.778 95.0556L247.917 94.5L248 93M264 69L263.389 71.0556L262.833 73L262.556 74L262.167 75L261.389 77L260.611 79L260.194 80L259.833 81L259.444 82L258.833 84L258.556 85L257.75 87L257.25 88L256.444 90L256.167 91L255.556 93L255.167 94L254.389 96L253.611 98L253.194 99L252.833 100L252.444 101L252.167 102L251.611 103.944L251 106L259 106L259.278 104.5L259.833 102.944L260.167 102L260.528 101.056L260.917 99.5L261 98L276 98L276.083 99.5L276.472 101.056L276.833 102L277.167 102.944L277.722 104.5L278 106L286 106L285.389 103.944L284.833 102L284.556 101L284.167 100L283.389 98L282.694 96L282.139 94L281.833 93L281.556 92L280.75 90L280.25 89L279.444 87L279.139 86L278.417 84L277.583 82L276.861 80L276.556 79L275.806 77L275.389 76L274.667 74L274.333 73L274 72.0556L273.667 71.0556L273.444 70.5L273 69L264 69M288 69L288 75L307 75L305.528 77.0556L304 79L302.389 81L300.778 83L299.917 84L298.028 86L297.083 87L295.389 89L293.861 91L293.139 92L291.611 94L289.944 96L289.083 97L287.722 99L287.333 100L287.111 101L287 102.944L287 103.944L287 106L315 106L315 100L297 100L297.778 98.5L298.278 97.9444L299.028 96.9444L300.611 95L301.389 94L302.194 93L303.806 91L304.611 90L305.389 89L306.222 88L308 86L309.778 84L310.611 83L312.194 81L313 80L314.5 78L315.5 76L315.75 75L315.972 73L316 71.0556L316 69L288 69M269 78L269.5 79.5L269.833 80.0556L270.25 81.0556L270.75 82L271.556 84L271.833 85L272.444 87L272.833 88L273.528 89.9444L273.722 90.5L274 92L272.5 92.7222L271.944 92.75L270.944 92.9444L270 92.9722L269 93L267.056 93L264 93L264 91.5L264.028 90.9444L264.222 89L264.417 88L265 86L265.667 84L266.333 82L266.694 81.0278L267.056 80.1111L267.583 79.3056L267.833 78.7778L269 78M67 83L67 99L52 99L52 83L67 83z"/>
</svg>
