<?xml version="1.0" encoding="UTF-8" standalone="no"?>
<!-- Created with Inkscape (http://www.inkscape.org/) -->

<svg
   width="57.699898mm"
   height="15.92487mm"
   viewBox="0 0 57.699898 15.92487"
   version="1.1"
   id="svg1"
   xmlns="http://www.w3.org/2000/svg"
   xmlns:svg="http://www.w3.org/2000/svg">
  <defs
     id="defs1" />
  <g
     id="layer1"
     transform="translate(-9.9456776,-11.269749)">
    <path
       style="fill:#ffffff;stroke-width:0.415956"
       d="M 16.841614,26.044414 V 24.897373 H 15.673693 14.50575 v -1.139524 -1.139525 c -0.807706,0 -1.559209,-0.0083 -2.339368,-0.0083 0,-0.708249 0.01659,-1.468046 -0.0041,-2.176097 l -0.190641,-0.0062 c -0.104735,-0.0031 -0.603577,-0.0062 -1.108297,-0.0041 l -0.9176664,0.0021 v -1.192814 -1.192825 h 1.1084424 1.108442 c 0,-0.764773 8.09e-4,-1.525099 8.09e-4,-2.293481 0.879627,0 1.521564,-8.08e-4 2.335117,-8.08e-4 0,-0.77764 -0.0083,-1.406265 -0.0083,-2.292745 1.05339,0 1.321239,-0.01151 2.394213,-0.01151 0,-0.714843 -0.0083,-1.432796 -0.0083,-2.171795 0,0 2.053956,0.0073 2.381223,0.0073 0,0.310451 0.02488,0.767003 0.02633,1.884921 l 0.0073,0.295511 c 0.756873,0 1.455688,-0.0062 2.239071,-0.0062 0,0.666985 -0.0062,1.534047 -0.0062,2.302013 h 1.164033 1.164065 v 1.14333 1.14334 h 1.167932 1.167932 v 1.201917 1.201896 l -0.250256,-0.02115 c -0.137662,-0.01161 -0.663232,-0.01348 -1.167942,-0.0031 l -0.917666,0.0169 v 1.085084 1.085084 l -1.136673,0.0031 -1.171426,0.0141 -0.0141,1.160353 0.0062,1.112714 -1.132339,0.0031 -1.187963,0.0062 c -0.0062,0.770569 0.0021,1.579851 0.0021,2.283258 l -1.178362,0.0052 -1.195748,-0.001 z m 2.335885,-2.29037 0.0083,-1.152982 -1.122158,0.0083 h -1.11231 v 1.14333 1.14335 h 1.11231 1.11234 z m -2.336102,-2.259465 -2.39e-4,-1.116114 h -1.112174 -1.112206 l 1.04e-4,1.116114 9.3e-5,1.116135 h 1.11233 1.112309 z m 4.671987,0.02727 V 20.43295 h -1.10443 -1.202726 l 0.0031,0.982495 c 0.0021,0.641481 -4.15e-4,1.075939 -4.15e-4,1.194649 0.05733,-0.0031 0.540645,8.19e-4 1.201047,8.19e-4 h 1.103061 z m -2.335885,-2.28668 V 18.14627 h -1.11232 -1.112309 v 1.088899 1.088909 h 1.112309 1.11232 z m 4.67178,0 V 18.14627 h -1.167953 -1.167942 v 1.088899 1.088909 h 1.167942 1.167953 z M 16.841614,16.9485 v -1.088899 h -1.112309 -1.11233 v 1.088899 1.088899 h 1.11233 1.112309 z m 4.67177,0 v -1.088899 h -1.11232 -1.11232 v 1.088899 1.088899 h 1.11232 1.11232 z M 19.177499,14.661831 V 13.57288 h -1.11232 -1.112309 v 1.088909 1.088879 h 1.112309 1.11232 z"
       id="path19" />
    <path
       style="fill:#ffffff;stroke-width:0.427136"
       d="m 29.750937,17.528229 c -1.902442,-0.654607 -2.097251,-3.860528 -0.293883,-4.83644 1.265897,-0.685056 3.087097,-0.01908 3.324466,1.215748 l 0.05288,0.275345 h -0.50175 -0.501745 l -0.156873,-0.296568 c -0.711318,-1.344773 -2.358393,-0.500303 -2.358393,1.209165 0,1.595122 1.768139,2.399065 2.347869,1.067541 l 0.126238,-0.289922 0.515305,-6.53e-4 0.515296,-6.54e-4 -0.04914,0.201911 c -0.293582,1.208086 -1.728565,1.899208 -3.020381,1.454713 z m 5.299544,-0.02561 C 33.074874,16.82001 32.878271,13.604944 34.75552,12.678994 l 0.449212,-0.221578 c 0,0 0.300673,-0.08802 0.763052,-0.07931 0.462368,0.0083 0.495763,0.03494 0.727087,0.09331 0.231324,0.05837 0.433173,0.184514 0.433173,0.184514 1.836234,0.933975 1.559375,3.183175 0.620123,4.354238 -0.542179,0.675964 -1.661922,0.850328 -2.697686,0.492466 z m 1.830169,-1.065167 c 0.852992,-0.554143 0.797121,-2.387122 -0.02354,-2.950679 -1.341871,-0.921564 -2.886492,0.789449 -2.17927,2.421968 0.342881,0.791491 1.513436,0.976523 2.202743,0.528711 z m 17.996215,1.104026 c -2.26722,-0.763841 -2.189078,-4.309854 -0.07931,-5.013116 1.315329,-0.43844 2.842606,0.311539 3.001501,1.434227 l 0.02592,0.183549 -0.494819,0.02053 -0.494819,0.02053 -0.15226,-0.275262 c -0.472228,-0.853749 -1.682751,-0.820998 -2.149857,0.05816 -0.412158,0.775722 -0.29042,1.93791 0.258435,2.467264 0.187241,0.208982 0.656566,0.37754 1.019062,0.358867 0.736885,-0.03794 0.878953,-0.340993 1.136083,-0.934534 h 0.493793 c 0.276237,0 0.473399,3.73e-4 0.473399,3.73e-4 0,0 -0.02436,0.341409 -0.137818,0.587009 -0.200169,0.433318 -0.604074,0.803031 -1.041518,0.97812 -0.811013,0.324613 -1.605262,0.19933 -1.857892,0.114211 z m 9.335503,-0.03712 c -0.679219,-0.349619 -0.7441,-0.421602 -1.009617,-0.738387 -0.217359,-0.259317 -0.350097,-0.583982 -0.439611,-0.906075 -0.09186,-0.330564 -0.09756,-0.680733 -0.09155,-1.022919 0.0041,-0.223476 0.02177,-0.450176 0.08315,-0.6657 0.05464,-0.191761 0.250069,-0.545673 0.250069,-0.545673 0.981987,-1.924805 3.930302,-1.539189 4.523656,0.573158 0.609818,2.170996 -1.260972,4.059484 -3.316068,3.305596 z m 1.621923,-0.886708 c 1.1645,-0.604188 0.869166,-3.040567 -0.40208,-3.317094 -1.193654,-0.259649 -2.043318,1.025065 -1.637433,2.47588 0.238032,0.850856 1.23132,1.260536 2.039513,0.841214 z M 39.364399,15.027197 v -2.533078 l 0.551903,0.001 0.551925,10e-4 1.016553,1.724304 c 1.235903,2.096391 1.153054,2.096464 1.153054,-10e-4 v -1.725435 h 0.45676 0.456759 v 2.533079 2.533088 l -0.513854,-0.0021 -0.513854,-0.0021 -1.065769,-1.806924 -1.065779,-1.806935 -0.02032,1.808863 -0.02032,1.808863 H 39.857902 39.3644 Z m 6.445371,2.484132 c -0.02799,-0.02696 -0.0508,-0.968561 -0.0508,-2.092544 v -2.043598 h -0.76126 -0.761269 v -0.440534 -0.440534 h 2.093477 2.093477 v 0.440534 0.440534 h -0.799329 -0.799329 v 2.092554 2.092545 h -0.482129 c -0.265175,0 -0.504979,-0.02208 -0.532879,-0.04894 z m 2.309168,-0.03276 c 0,-0.045 0.260301,-0.780117 0.578424,-1.633659 0.318133,-0.853531 0.726226,-1.948371 0.906894,-2.432968 l 0.328469,-0.881068 0.606107,-0.02125 0.606106,-0.02115 0.282862,0.755412 c 0.155567,0.415465 0.385564,1.036241 0.511086,1.379495 0.346851,0.948468 0.669681,1.82005 0.870804,2.351084 0.09974,0.263339 0.181352,0.502875 0.181352,0.532309 0,0.02944 -0.252236,0.0535 -0.56054,0.0535 h -0.56054 l -0.181694,-0.532319 -0.181694,-0.532309 -0.945576,-0.02074 c -1.067231,-0.02333 -0.989183,-0.06314 -1.229071,0.626458 l -0.159631,0.458885 h -0.526679 c -0.336152,0 -0.526679,-0.02955 -0.526679,-0.0817 z m 3.097205,-1.882297 c -0.01814,-0.03027 -0.160637,-0.451555 -0.316681,-0.936142 -0.156034,-0.484586 -0.308439,-0.906614 -0.338682,-0.937831 -0.04469,-0.04624 -0.690924,1.711677 -0.690924,1.879696 0,0.02716 0.310336,0.04935 0.689628,0.04935 0.379302,0 0.674792,-0.02478 0.656659,-0.05505 z m 8.626291,-0.125138 V 13.375228 H 59.043105 58.243776 V 12.934694 12.49416 h 2.093477 2.093477 v 0.440534 0.440534 h -0.760077 -0.760087 l -0.02022,2.074194 -0.02022,2.074193 -0.513865,0.02167 -0.513854,0.02167 z"
       id="path37" />
    <path
       d="m 40.881753,25.849667 c -1.879021,-0.692635 -2.032308,-3.919416 -0.230868,-4.859787 1.228936,-0.641512 2.933427,0.04987 3.183745,1.291504 l 0.04531,0.224658 h -0.485934 -0.485945 l -0.151617,-0.29466 c -0.767956,-1.49241 -2.621826,-0.182731 -2.278914,1.609979 0.255273,1.33451 1.734361,1.77381 2.238708,0.664922 l 0.1376,-0.302529 h 0.50385 c 0.277118,0 0.50386,0.01223 0.50386,0.02737 0,0.39023 -0.494177,1.119597 -0.978431,1.445537 -0.468911,0.315614 -0.865475,0.312026 -1.069833,0.314432 -0.204358,0.0031 -0.931538,-0.05588 -0.931538,-0.121354 z m -12.2503,-2.504722 v -2.516563 h 1.839386 1.839376 v 0.437662 0.437652 h -1.32435 -1.32436 v 0.547083 0.547083 h 1.214006 1.213986 v 0.437662 0.437662 h -1.213986 -1.214006 v 0.656493 0.656504 h 1.397929 1.39794 v 0.437652 0.437672 h -1.912955 -1.912966 z m 4.708824,0 v -2.516563 h 1.765816 1.765806 v 0.437662 0.437652 H 35.62113 34.370339 v 0.583556 0.583547 h 1.103631 1.103632 v 0.437682 0.437652 H 35.47397 34.370339 v 1.057682 1.057692 h -0.515026 -0.515036 z m 4.193808,0 v -2.516563 h 0.515015 0.515026 v 2.516563 2.516562 H 38.0491 37.534085 Z m 6.803379,2.388905 c 0.02768,-0.07019 0.144142,-0.390251 0.258954,-0.711194 0.114812,-0.320963 0.363533,-1.01028 0.552712,-1.531827 0.1892,-0.521548 0.480429,-1.33395 0.647183,-1.80537 l 0.303193,-0.857077 h 0.59887 0.598859 l 0.115527,0.346478 c 0.06355,0.190569 0.286906,0.822449 0.496333,1.404171 0.209459,0.581731 0.407523,1.139752 0.440161,1.240039 0.03266,0.100359 0.195068,0.558736 0.360952,1.018761 0.394947,1.095234 0.408798,1.034386 -0.229593,1.008643 l -0.53121,-0.02146 -0.154334,-0.510609 -0.154323,-0.51061 h -0.951517 -0.951506 l -0.182865,0.528846 -0.182845,0.528836 h -0.542376 -0.542386 z m 2.982124,-1.818018 c 0,-0.17311 -0.616485,-1.920575 -0.660267,-1.871557 -0.02976,0.03349 -0.146724,0.356037 -0.259846,0.717124 -0.113132,0.361065 -0.248897,0.779568 -0.3017,0.930034 l -0.096,0.273531 h 0.658919 c 0.362403,0 0.658909,-0.02219 0.658909,-0.04925 z m 2.060114,1.517012 v -0.428663 l 1.317185,-1.632011 1.317196,-1.632 -1.280411,-0.0198 -1.280401,-0.0198 v -0.435983 -0.435993 h 1.94975 1.94975 v 0.390541 0.390552 l -1.32436,1.648495 c -0.728403,0.906677 -1.324349,1.666442 -1.324349,1.68837 0,0.02198 0.595946,0.03992 1.324349,0.03992 h 1.32436 v 0.437672 0.437662 h -1.986545 -1.986524 z"
       style="fill:#ffffff;stroke-width:0.418546"
       id="path1" />
  </g>
</svg>
