<svg width="20" height="20" viewBox="0 0 20 20" fill="none" xmlns="http://www.w3.org/2000/svg">
<path d="M1 15.7699L6.76999 9.98985C7.01999 9.73985 7.08001 9.37985 6.98001 9.04985C6.59001 7.81985 6.55999 6.38986 7.07999 4.96986C7.82999 2.93986 9.68001 1.42985 11.82 1.07985C16.01 0.39985 19.58 3.95986 18.92 8.14986C18.51 10.7499 16.39 12.8499 13.79 13.2399C12.9 13.3799 12.05 13.3198 11.26 13.1098C10.94 13.0198 10.6 13.0999 10.36 13.3299L4.69 18.9999H1V15.7699V15.7699Z" stroke="white" stroke-width="1.5" stroke-linecap="round" stroke-linejoin="round"/>
<path d="M9.20096 14.1797L7.96094 12.9297" stroke="white" stroke-width="1.5" stroke-linecap="round" stroke-linejoin="round"/>
<path d="M6.35938 17.0195L5.10938 15.7695" stroke="white" stroke-width="1.5" stroke-linecap="round" stroke-linejoin="round"/>
<path d="M12.8399 8.57828C13.6241 8.57828 14.2599 7.94254 14.2599 7.15829C14.2599 6.37405 13.6241 5.73828 12.8399 5.73828C12.0557 5.73828 11.4199 6.37405 11.4199 7.15829C11.4199 7.94254 12.0557 8.57828 12.8399 8.57828Z" stroke="white" stroke-width="1.5" stroke-linecap="round" stroke-linejoin="round"/>
</svg>
