<svg width="20" height="20" viewBox="0 0 20 20" fill="none" xmlns="http://www.w3.org/2000/svg">
<path d="M12.6792 6.4C12.6792 7.46 12.3792 8.45 11.8292 9.29C11.7892 9.37 11.7392 9.44 11.6892 9.51C10.7292 10.89 9.11921 11.8 7.31921 11.8C4.35921 11.8 1.94922 9.38 1.94922 6.4C1.94922 3.42 4.35921 1 7.31921 1C9.12921 1 10.7392 1.91 11.6892 3.29C11.7392 3.36 11.7892 3.43 11.8292 3.52C12.3792 4.36 12.6792 5.35 12.6792 6.41V6.4Z" stroke="white" stroke-width="1.5" stroke-linecap="round" stroke-linejoin="round"/>
<path d="M18.4998 6.40187C18.4998 8.60187 16.7298 10.3819 14.5498 10.3819C13.4998 10.3819 12.5498 9.97187 11.8398 9.29187C12.3898 8.45187 12.6898 7.46187 12.6898 6.40187C12.6898 5.34187 12.3898 4.35188 11.8398 3.51188C12.5498 2.83188 13.4998 2.42188 14.5498 2.42188C16.7298 2.42188 18.4998 4.20187 18.4998 6.40187Z" stroke="white" stroke-width="1.5" stroke-linecap="round" stroke-linejoin="round"/>
<path d="M1.5 19.0007C4.11 14.5807 10.46 14.5607 13.1 18.9507L13.13 19.0007" stroke="white" stroke-width="1.5" stroke-linecap="round" stroke-linejoin="round"/>
<path d="M17.1605 18.1003C16.7405 16.6403 15.7405 15.5003 14.4805 15.0103L15.6705 13.8203" stroke="white" stroke-width="1.5" stroke-linecap="round" stroke-linejoin="round"/>
</svg>
