<svg width="20" height="16" viewBox="0 0 20 16" fill="none" xmlns="http://www.w3.org/2000/svg">
<path d="M13.2305 4.89062C13.7305 5.26063 14.1205 5.74062 14.4005 6.29062C14.6805 6.84062 14.8205 7.45062 14.8205 8.07062C14.8205 8.69062 14.6805 9.30062 14.4005 9.85062C14.1205 10.4006 13.7305 10.8806 13.2305 11.2506" stroke="white" stroke-width="1.5" stroke-linecap="round" stroke-linejoin="round"/>
<path d="M16.8906 2.94922C17.5606 3.60922 18.1006 4.3992 18.4606 5.2692C18.8206 6.1392 19.0106 7.0692 19.0106 8.0192C19.0106 8.9692 18.8206 9.8992 18.4606 10.7692C18.1006 11.6392 17.5606 12.4292 16.8906 13.0892" stroke="white" stroke-width="1.5" stroke-linecap="round" stroke-linejoin="round"/>
<path d="M10.01 3.17115V12.8711C10.01 14.6211 9.00002 15.0411 7.77002 13.7711C6.60002 12.7011 5.11002 12.0611 3.52002 11.9711C3.19002 11.9711 2.86 11.9111 2.56 11.7811C2.25 11.6511 1.96999 11.4711 1.73999 11.2311C1.50999 10.9911 1.32 10.7211 1.19 10.4111C1.06 10.1011 1 9.78114 1 9.44114V6.45115C1 5.78115 1.26999 5.14114 1.73999 4.66114C2.21999 4.19114 2.86002 3.92115 3.52002 3.92115C5.10002 3.82115 6.60002 3.18113 7.77002 2.12113C9.00002 0.991131 10.01 1.41114 10.01 3.16114V3.17115Z" stroke="white" stroke-width="1.5" stroke-miterlimit="10"/>
</svg>
