<svg width="20" height="20" viewBox="0 0 20 20" fill="none" xmlns="http://www.w3.org/2000/svg">


<path xmlns="http://www.w3.org/2000/svg" style="fill:#000000;stroke-width:0.401204" d="m 16.597041,25.520412 v -1.10636 h -1.1265 -1.12652 v -1.09911 -1.09911 c -0.77906,0 -1.50391,-0.008 -2.2564,-0.008 0,-0.68313 0.016,-1.41598 -0.004,-2.09892 l -0.18388,-0.006 c -0.10102,-0.003 -0.58217,-0.006 -1.06899,-0.004 l -0.8851204,0.002 v -1.15051 -1.15052 h 1.0691304 1.06913 c 0,-0.73765 7.8e-4,-1.47101 7.8e-4,-2.21214 0.84843,0 1.4676,-7.8e-4 2.2523,-7.8e-4 0,-0.75006 -0.008,-1.35639 -0.008,-2.21143 1.01603,0 1.27438,-0.0111 2.3093,-0.0111 0,-0.68949 -0.008,-1.38198 -0.008,-2.09477 0,0 1.98111,0.007 2.29677,0.007 0,0.29944 0.024,0.7398 0.0254,1.81807 l 0.007,0.28503 c 0.73003,0 1.40406,-0.006 2.15966,-0.006 0,0.64333 -0.006,1.47964 -0.006,2.22037 h 1.12275 1.12278 v 1.10278 1.10279 h 1.12651 1.12651 v 1.15929 1.15927 l -0.24138,-0.0204 c -0.13278,-0.0112 -0.63971,-0.013 -1.12652,-0.003 l -0.88512,0.0163 v 1.0466 1.0466 l -1.09636,0.003 -1.12988,0.0136 -0.0136,1.1192 0.006,1.07325 -1.09218,0.003 -1.14583,0.006 c -0.006,0.74324 0.002,1.52382 0.002,2.20228 l -1.13657,0.005 -1.15334,-10e-4 z m 2.25304,-2.20914 0.008,-1.11209 -1.08236,0.008 h -1.07286 v 1.10278 1.1028 h 1.07286 1.07289 z m -2.25325,-2.17933 -2.3e-4,-1.07653 h -1.07273 -1.07276 l 1e-4,1.07653 9e-5,1.07655 h 1.07288 1.07286 z m 4.50629,0.0263 v -1.05028 h -1.06526 -1.16007 l 0.003,0.94765 c 0.002,0.61873 -4e-4,1.03778 -4e-4,1.15228 0.0553,-0.003 0.52147,7.9e-4 1.15845,7.9e-4 h 1.06394 z m -2.25304,-2.20558 v -1.05028 h -1.07287 -1.07286 v 1.05028 1.05029 h 1.07286 1.07287 z m 4.50609,0 v -1.05028 h -1.12653 -1.12652 v 1.05028 1.05029 h 1.12652 1.12653 z m -6.75913,-2.20557 v -1.05028 h -1.07286 -1.07288 v 1.05028 1.05028 h 1.07288 1.07286 z m 4.50608,0 v -1.05028 h -1.07287 -1.07287 v 1.05028 1.05028 h 1.07287 1.07287 z m -2.25304,-2.20557 v -1.05033 h -1.07287 -1.07286 v 1.05029 1.05026 h 1.07286 1.07287 z" id="path19"/>
<path xmlns="http://www.w3.org/2000/svg" style="fill:#000000;stroke-width:0.411987" d="m 29.048521,17.306262 c -1.83497,-0.63139 -2.02287,-3.72361 -0.28346,-4.66491 1.221,-0.66076 2.97761,-0.0184 3.20656,1.17263 l 0.051,0.26558 h -0.48395 -0.48395 l -0.15131,-0.28605 c -0.68609,-1.29708 -2.27475,-0.48256 -2.27475,1.16628 0,1.53855 1.70543,2.31398 2.2646,1.02968 l 0.12176,-0.27964 0.49703,-6.3e-4 0.49702,-6.3e-4 -0.0474,0.19475 c -0.28317,1.16524 -1.66726,1.83185 -2.91326,1.40312 z m 5.11159,-0.0247 c -1.90554,-0.6584 -2.09517,-3.75944 -0.2845,-4.65255 l 0.43328,-0.21372 c 0,0 0.29001,-0.0849 0.73599,-0.0765 0.44597,0.008 0.47818,0.0337 0.7013,0.09 0.22312,0.0563 0.41781,0.17797 0.41781,0.17797 1.77111,0.90085 1.50407,3.07028 0.59813,4.19981 -0.52295,0.65199 -1.60298,0.82017 -2.60201,0.475 z m 1.76526,-1.02739 c 0.82274,-0.53449 0.76885,-2.30246 -0.0227,-2.84603 -1.29428,-0.88888 -2.78412,0.76145 -2.10198,2.33607 0.33072,0.76342 1.45976,0.94189 2.12462,0.50996 z m 17.35796,1.06487 c -2.18681,-0.73675 -2.11144,-4.157 -0.0765,-4.83532 1.26868,-0.42289 2.74179,0.30049 2.89505,1.38336 l 0.025,0.17704 -0.47727,0.0198 -0.47727,0.0198 -0.14686,-0.2655 c -0.45548,-0.82347 -1.62307,-0.79188 -2.07361,0.0561 -0.39754,0.74821 -0.28012,1.86918 0.24927,2.37976 0.1806,0.20157 0.63328,0.36415 0.98292,0.34614 0.71075,-0.0366 0.84778,-0.3289 1.09579,-0.90139 h 0.47628 c 0.26644,0 0.45661,3.6e-4 0.45661,3.6e-4 0,0 -0.0235,0.3293 -0.13293,0.56619 -0.19307,0.41795 -0.58265,0.77455 -1.00458,0.94343 -0.78225,0.3131 -1.54833,0.19226 -1.792,0.11016 z m 9.00441,-0.0358 c -0.65513,-0.33722 -0.71771,-0.40665 -0.97381,-0.7122 -0.20965,-0.25012 -0.33768,-0.56327 -0.42402,-0.87394 -0.0886,-0.31884 -0.0941,-0.65659 -0.0883,-0.98664 0.004,-0.21555 0.021,-0.43421 0.0802,-0.64209 0.0527,-0.18496 0.2412,-0.52632 0.2412,-0.52632 0.94716,-1.85654 3.79091,-1.4846 4.36322,0.55283 0.58819,2.094 -1.21625,3.91551 -3.19846,3.18836 z m 1.5644,-0.85526 c 1.1232,-0.58276 0.83834,-2.93273 -0.38782,-3.19945 -1.15132,-0.25044 -1.97085,0.98871 -1.57936,2.38807 0.22959,0.82068 1.18765,1.21583 1.96718,0.81138 z m -25.53111,-1.53405 v -2.44324 l 0.53233,10e-4 0.53235,0.001 0.9805,1.66315 c 1.19207,2.02204 1.11216,2.02211 1.11216,-0.001 v -1.66424 h 0.44056 0.44056 v 2.44324 2.44325 l -0.49563,-0.002 -0.49563,-0.002 -1.02797,-1.74284 -1.02798,-1.74285 -0.0196,1.74471 -0.0196,1.74471 h -0.47605 -0.476 z m 6.21678,2.39603 c -0.027,-0.026 -0.049,-0.93421 -0.049,-2.01833 v -1.97112 h -0.73426 -0.73427 v -0.42491 -0.42491 h 2.01923 2.01923 v 0.42491 0.42491 h -0.77098 -0.77098 v 2.01834 2.01833 h -0.46503 c -0.25577,0 -0.48707,-0.0213 -0.51398,-0.0472 z m 2.22727,-0.0316 c 0,-0.0434 0.25107,-0.75245 0.55791,-1.57572 0.30685,-0.82326 0.70047,-1.87927 0.87473,-2.34668 l 0.31682,-0.84982 0.58461,-0.0205 0.58461,-0.0204 0.27283,0.72862 c 0.15005,0.40073 0.37189,0.99949 0.49296,1.33057 0.33455,0.91483 0.64593,1.7555 0.83992,2.2677 0.0962,0.254 0.17492,0.48504 0.17492,0.51343 0,0.0284 -0.24329,0.0516 -0.54066,0.0516 h -0.54066 l -0.17525,-0.51344 -0.17525,-0.51343 -0.91204,-0.02 c -1.02938,-0.0225 -0.9541,-0.0609 -1.18548,0.60424 l -0.15397,0.44261 h -0.508 c -0.32423,0 -0.508,-0.0285 -0.508,-0.0788 z m 2.98736,-1.81554 c -0.0175,-0.0292 -0.15494,-0.43554 -0.30545,-0.90294 -0.1505,-0.4674 -0.2975,-0.87446 -0.32667,-0.90457 -0.0431,-0.0446 -0.66642,1.65097 -0.66642,1.81303 0,0.0262 0.29933,0.0476 0.66517,0.0476 0.36585,0 0.65086,-0.0239 0.63337,-0.0531 z m 8.32035,-0.1207 v -2.02157 h -0.77098 -0.77098 v -0.42491 -0.42491 h 2.01923 2.01923 v 0.42491 0.42491 h -0.73312 -0.73313 l -0.0195,2.00063 -0.0195,2.00063 -0.49564,0.0209 -0.49563,0.0209 z" id="path37"/>
<path xmlns="http://www.w3.org/2000/svg" d="m 39.784571,25.332572 c -1.81238,-0.66807 -1.96023,-3.78041 -0.22268,-4.68743 1.18535,-0.61876 2.82939,0.0481 3.07083,1.2457 l 0.0437,0.21669 h -0.4687 -0.46871 l -0.14624,-0.28421 c -0.74072,-1.43948 -2.52884,-0.17625 -2.19809,1.55288 0.24622,1.28718 1.67285,1.7109 2.15931,0.64134 l 0.13272,-0.2918 h 0.48598 c 0.26729,0 0.48599,0.0118 0.48599,0.0264 0,0.37639 -0.47665,1.07989 -0.94373,1.39427 -0.45228,0.30442 -0.83478,0.30096 -1.03189,0.30328 -0.19711,0.003 -0.8985,-0.0539 -0.8985,-0.11705 z m -11.81583,-2.41589 v -2.42731 h 1.77415 1.77414 v 0.42214 0.42213 h -1.27738 -1.27739 v 0.52768 0.52768 h 1.17095 1.17093 v 0.42214 0.42214 h -1.17093 -1.17095 v 0.63321 0.63322 h 1.34835 1.34836 v 0.42213 0.42215 h -1.84511 -1.84512 z m 4.54182,0 v -2.42731 h 1.70319 1.70318 v 0.42214 0.42213 h -1.20641 -1.20643 v 0.56286 0.56285 h 1.06449 1.06449 v 0.42216 0.42213 h -1.06449 -1.06449 v 1.02017 1.02018 h -0.49676 -0.49677 z m 4.04507,0 v -2.42731 h 0.49675 0.49676 v 2.42731 2.42731 h -0.49676 -0.49675 z m 6.56209,2.30418 c 0.0267,-0.0677 0.13903,-0.37641 0.24977,-0.68597 0.11074,-0.30958 0.35064,-0.97445 0.53311,-1.4775 0.18249,-0.50305 0.46339,-1.28664 0.62423,-1.74134 l 0.29244,-0.82668 h 0.57763 0.57762 l 0.11143,0.33419 c 0.0613,0.18381 0.27673,0.79328 0.47873,1.35437 0.20203,0.5611 0.39307,1.09933 0.42455,1.19606 0.0315,0.0968 0.18815,0.53892 0.34815,0.98263 0.38094,1.05639 0.3943,0.9977 -0.22145,0.97287 l -0.51237,-0.0207 -0.14886,-0.4925 -0.14885,-0.4925 h -0.91777 -0.91776 l -0.17638,0.51009 -0.17636,0.51008 h -0.52314 -0.52315 z m 2.87636,-1.75354 c 0,-0.16697 -0.59462,-1.85246 -0.63685,-1.80518 -0.0287,0.0323 -0.14152,0.34341 -0.25063,0.69169 -0.10912,0.34826 -0.24007,0.75192 -0.291,0.89705 l -0.0926,0.26383 h 0.63555 c 0.34955,0 0.63554,-0.0214 0.63554,-0.0475 z m 1.98705,1.46321 v -0.41346 l 1.27047,-1.57413 1.27048,-1.57412 -1.235,-0.0191 -1.23499,-0.0191 v -0.42052 -0.42053 h 1.8806 1.8806 v 0.37669 0.3767 l -1.27739,1.59003 c -0.70257,0.87452 -1.27738,1.60734 -1.27738,1.62849 0,0.0212 0.57481,0.0385 1.27738,0.0385 h 1.27739 v 0.42215 0.42214 h -1.91609 -1.91607 z" style="fill:#000000;stroke-width:0.403702" id="path1"/>
</svg>