<svg width="20" height="20" viewBox="0 0 20 20" fill="none" xmlns="http://www.w3.org/2000/svg">
<path d="M15.6391 4.51172H4.09914C2.31914 4.51172 0.869141 5.9617 0.869141 7.7417V15.2817C0.869141 17.0617 2.31914 18.5117 4.09914 18.5117H15.6391C17.4191 18.5117 18.8691 17.0617 18.8691 15.2817V7.7417C18.8691 5.9617 17.4191 4.51172 15.6391 4.51172Z" stroke="white" stroke-width="1.5" stroke-linecap="round" stroke-linejoin="round"/>
<path d="M6.86914 13.5117C7.97914 13.5117 8.86914 12.6117 8.86914 11.5117C8.86914 10.4117 7.96914 9.51172 6.86914 9.51172C5.76914 9.51172 4.86914 10.4117 4.86914 11.5117C4.86914 12.6117 5.76914 13.5117 6.86914 13.5117Z" stroke="white" stroke-width="1.5" stroke-linecap="round" stroke-linejoin="round"/>
<path d="M12.3594 9.5H15.3594" stroke="white" stroke-width="1.5" stroke-linecap="round" stroke-linejoin="round"/>
<path d="M12.3594 13.5117H15.3594" stroke="white" stroke-width="1.5" stroke-linecap="round" stroke-linejoin="round"/>
<path d="M9.86914 4.51172L13.8691 1.51172" stroke="black" stroke-width="1.5" stroke-linecap="round" stroke-linejoin="round"/>
</svg>
