<svg width="20" height="20" viewBox="0 0 20 20" fill="none" xmlns="http://www.w3.org/2000/svg">
<path d="M16.0098 17.4511V19.0011H4.00977V17.4511C4.00977 17.0311 4.13976 16.6211 4.38976 16.2811C4.63976 15.9411 4.97976 15.6911 5.37976 15.5511C8.38976 14.5611 11.6298 14.5611 14.6498 15.5511C15.0498 15.6811 15.3898 15.9411 15.6398 16.2811C15.8898 16.6211 16.0298 17.0311 16.0298 17.4511H16.0098Z" stroke="white" stroke-width="1.5" stroke-linejoin="round"/>
<path d="M13.0098 11.25C12.0898 11.78 11.0598 12.06 9.99976 12.06C8.93976 12.06 7.90976 11.78 6.98976 11.25C6.22976 10.81 5.60976 10.18 5.16976 9.41998C4.72976 8.65998 4.50977 7.79999 4.50977 6.92999V1H15.5098V6.92999C15.5098 7.79999 15.2698 8.65998 14.8398 9.41998C14.3998 10.18 13.7798 10.81 13.0198 11.25H13.0098Z" stroke="white" stroke-width="1.5" stroke-linejoin="round"/>
<path d="M10 12.0703V14.8003" stroke="white" stroke-width="1.5" stroke-miterlimit="10"/>
<path d="M4.51 3H1V6.58002C1 7.27002 1.24 7.92997 1.66 8.46997C2.1 8.99997 2.69 9.38002 3.37 9.52002L5.62 10" stroke="white" stroke-width="1.5" stroke-linejoin="round"/>
<path d="M15.5006 3H19.0006V6.58002C19.0006 7.26002 18.7606 7.93002 18.3406 8.46002C17.9106 8.99002 17.3206 9.37001 16.6406 9.51001L14.3906 9.98999" stroke="white" stroke-width="1.5" stroke-linejoin="round"/>
</svg>
