<svg width="20" height="20" viewBox="0 0 20 20" fill="none" xmlns="http://www.w3.org/2000/svg">
<path d="M15 1H5C2.79086 1 1 2.79086 1 5V15C1 17.2091 2.79086 19 5 19H15C17.2091 19 19 17.2091 19 15V5C19 2.79086 17.2091 1 15 1Z" stroke="white" stroke-width="1.5" stroke-linecap="round" stroke-linejoin="round"/>
<path d="M5.05005 6.40015H11.3501" stroke="white" stroke-width="1.5" stroke-linecap="round" stroke-linejoin="round"/>
<path d="M13.1501 8.2001C14.1442 8.2001 14.9501 7.39421 14.9501 6.4001C14.9501 5.40599 14.1442 4.6001 13.1501 4.6001C12.156 4.6001 11.3501 5.40599 11.3501 6.4001C11.3501 7.39421 12.156 8.2001 13.1501 8.2001Z" stroke="white" stroke-width="1.5" stroke-linecap="round" stroke-linejoin="round"/>
<path d="M14.9502 13.6001H8.65015" stroke="white" stroke-width="1.5" stroke-linecap="round" stroke-linejoin="round"/>
<path d="M6.85007 15.4001C7.84418 15.4001 8.65005 14.5942 8.65005 13.6C8.65005 12.6059 7.84418 11.8 6.85007 11.8C5.85595 11.8 5.05005 12.6059 5.05005 13.6C5.05005 14.5942 5.85595 15.4001 6.85007 15.4001Z" stroke="white" stroke-width="1.5" stroke-linecap="round" stroke-linejoin="round"/>
</svg>
