<svg width="20" height="20" viewBox="0 0 20 20" fill="none" xmlns="http://www.w3.org/2000/svg">
<path d="M2.61982 15.15C1.67982 13.8 1.12981 12.22 1.01981 10.58C0.909815 8.94002 1.25981 7.30003 2.01981 5.84003C2.78981 4.38003 3.92982 3.15999 5.33982 2.29999C6.73982 1.44999 8.35984 1 10.0098 1C11.6598 1 13.2698 1.44999 14.6798 2.29999C16.0898 3.14999 17.2298 4.38003 17.9998 5.84003C18.7598 7.30003 19.1098 8.94002 18.9998 10.58C18.8898 12.22 18.3398 13.8 17.3998 15.15" stroke="white" stroke-width="1.5" stroke-miterlimit="10" stroke-linecap="round"/>
<path d="M6.73001 12.2917C6.26001 11.6217 6 10.8217 6 10.0017C6 8.94171 6.42001 7.9317 7.17001 7.1817C7.92001 6.4317 8.92999 6.01172 9.98999 6.01172C11.05 6.01172 12.06 6.4317 12.81 7.1817C13.56 7.9317 13.98 8.94171 13.98 10.0017C13.98 10.8217 13.72 11.6217 13.25 12.2917" stroke="white" stroke-width="1.5" stroke-miterlimit="10" stroke-linecap="round"/>
<path d="M7 18.9883V17.9883C7 17.1983 7.31 16.4283 7.88 15.8683C8.44 15.3083 9.21 14.9883 10 14.9883C10.79 14.9883 11.56 15.3083 12.12 15.8683C12.68 16.4283 13 17.1883 13 17.9883V18.9983" stroke="white" stroke-width="1.5" stroke-miterlimit="10" stroke-linecap="round"/>
</svg>
